<svg width="21" height="21" viewBox="0 0 21 21" fill="none" xmlns="http://www.w3.org/2000/svg">
<path d="M8 2C8 0.89543 8.89543 0 10 0H11C12.1046 0 13 0.895431 13 2V8C13 9.10457 12.1046 10 11 10H10C8.89543 10 8 9.10457 8 8V2Z" fill="black"/>
<path d="M13.2259 11.9002C12.159 12.1861 11.0623 11.5529 10.7765 10.486L10.5176 9.52004C10.2318 8.45311 10.8649 7.35643 11.9319 7.07055L17.7274 5.51763C18.7943 5.23175 19.891 5.86492 20.1769 6.93185L20.4357 7.89777C20.7216 8.96471 20.0884 10.0614 19.0215 10.3473L13.2259 11.9002Z" fill="black"/>
<rect x="8.2941" y="12.8932" width="5" height="4.10945" transform="rotate(-105 8.2941 12.8932)" fill="black"/>
<path d="M1.93185 10.3473C0.864919 10.0614 0.231755 8.96472 0.517638 7.89778L0.776457 6.93186C1.06234 5.86493 2.15901 5.23176 3.22595 5.51764L9.0215 7.07056C10.0884 7.35644 10.7216 8.45312 10.4357 9.52005L10.1769 10.486C9.89101 11.5529 8.79434 12.1861 7.72741 11.9002L1.93185 10.3473Z" fill="black"/>
<path d="M8.33014 18.4282C7.77785 19.3848 6.55467 19.7125 5.59809 19.1602L4.73206 18.6602C3.77548 18.108 3.44773 16.8848 4.00001 15.9282L7.00001 10.732C7.5523 9.77546 8.77548 9.44771 9.73206 9.99999L10.5981 10.5C11.5547 11.0523 11.8824 12.2755 11.3301 13.232L8.33014 18.4282Z" fill="black"/>
<path d="M13 18.4282C13.5523 19.3848 14.7755 19.7125 15.7321 19.1602L16.5981 18.6602C17.5547 18.108 17.8824 16.8848 17.3301 15.9282L14.3301 10.732C13.7778 9.77546 12.5547 9.44771 11.5981 9.99999L10.7321 10.5C9.77546 11.0523 9.44771 12.2755 10 13.232L13 18.4282Z" fill="black"/>
</svg>
