<svg width="33" height="33" viewBox="0 0 33 33" fill="none" xmlns="http://www.w3.org/2000/svg">
<path d="M23.1274 25.1777C24.232 25.1777 25.1274 24.2822 25.1274 23.1777V12.1777C25.1274 11.0731 24.232 10.1777 23.1274 10.1777H22.1274C21.0229 10.1777 20.1274 11.0731 20.1274 12.1777V23.1777C20.1274 24.2822 21.0229 25.1777 22.1274 25.1777H23.1274Z" fill="black"/>
<path d="M25.1777 22.1274C25.1777 21.0229 24.2823 20.1274 23.1777 20.1274H12.1777C11.0731 20.1274 10.1777 21.0229 10.1777 22.1274V23.1274C10.1777 24.232 11.0731 25.1274 12.1777 25.1274H23.1777C24.2823 25.1274 25.1777 24.232 25.1777 23.1274V22.1274Z" fill="black"/>
<path d="M23.4351 22.6274C24.2161 21.8464 24.2161 20.58 23.4351 19.799L10.7071 7.07108C9.92609 6.29003 8.65976 6.29003 7.87871 7.07108L7.1716 7.77818C6.39056 8.55923 6.39056 9.82556 7.1716 10.6066L19.8995 23.3345C20.6806 24.1156 21.9469 24.1156 22.728 23.3345L23.4351 22.6274Z" fill="black"/>
</svg>
