<svg width="33" height="33" viewBox="0 0 33 33" fill="none" xmlns="http://www.w3.org/2000/svg">
<path d="M7.44977 9.5C7.44977 8.39543 8.3452 7.5 9.44977 7.5H20.4498C21.5543 7.5 22.4498 8.39543 22.4498 9.5V10.5C22.4498 11.6046 21.5543 12.5 20.4498 12.5H9.44977C8.3452 12.5 7.44977 11.6046 7.44977 10.5V9.5Z" fill="black"/>
<path d="M10.5 7.44975C11.6046 7.44975 12.5 8.34518 12.5 9.44975V20.4498C12.5 21.5543 11.6046 22.4498 10.5 22.4498H9.50003C8.39546 22.4498 7.50003 21.5543 7.50003 20.4498V9.44975C7.50003 8.34518 8.39546 7.44975 9.50003 7.44975H10.5Z" fill="black"/>
<path d="M10 9.19238C10.7811 8.41133 12.0474 8.41133 12.8285 9.19238L25.5564 21.9203C26.3374 22.7014 26.3374 23.9677 25.5564 24.7487L24.8493 25.4558C24.0682 26.2369 22.8019 26.2369 22.0208 25.4558L9.29292 12.7279C8.51188 11.9469 8.51188 10.6805 9.29293 9.89949L10 9.19238Z" fill="black"/>
</svg>
