<svg width="24" height="24" viewBox="0 0 24 24" fill="none" xmlns="http://www.w3.org/2000/svg">
<path fill-rule="evenodd" clip-rule="evenodd" d="M12 3.8147e-06C5.32824 0.251956 1.61358e-06 5.52392 1.04825e-06 11.9906C4.82916e-07 18.4572 5.32823 23.7292 12 23.9812L12 3.8147e-06Z" fill="black"/>
<path fill-rule="evenodd" clip-rule="evenodd" d="M12 24C18.6274 24 24 18.6274 24 12C24 5.3726 18.6274 1.52588e-05 12 1.52588e-05C5.37258 1.52588e-05 0 5.3726 0 12C0 18.6274 5.37258 24 12 24ZM12 19C15.866 19 19 15.866 19 12C19 8.13402 15.866 5.00002 12 5.00002C8.13401 5.00002 5 8.13402 5 12C5 15.866 8.13401 19 12 19Z" fill="black"/>
</svg>
