<svg width="15" height="24" viewBox="0 0 15 24" fill="none" xmlns="http://www.w3.org/2000/svg">
<path d="M3 2C3 0.89543 3.89543 0 5 0H6C7.10457 0 8 0.895431 8 2V22C8 23.1046 7.10457 24 6 24H5C3.89543 24 3 23.1046 3 22V2Z" fill="black"/>
<path d="M5 5C3.89543 5 3 4.10457 3 3L3 2C3 0.895431 3.89543 4.37697e-07 5 3.89414e-07L13 3.97233e-08C14.1046 -8.55899e-09 15 0.895431 15 2L15 3C15 4.10457 14.1046 5 13 5L5 5Z" fill="black"/>
<path d="M2 14C0.895431 14 -3.91405e-08 13.1046 -8.74228e-08 12L-1.31134e-07 11C-1.79416e-07 9.89543 0.89543 9 2 9L6 9C7.10457 9 8 9.89543 8 11L8 12C8 13.1046 7.10457 14 6 14L2 14Z" fill="black"/>
<path d="M5 24C3.89543 24 3 23.1046 3 22L3 21C3 19.8954 3.89543 19 5 19L13 19C14.1046 19 15 19.8954 15 21L15 22C15 23.1046 14.1046 24 13 24L5 24Z" fill="black"/>
</svg>
