<svg width="24" height="12" viewBox="0 0 24 12" fill="none" xmlns="http://www.w3.org/2000/svg">
<path fill-rule="evenodd" clip-rule="evenodd" d="M1.85872 -8.12472e-08C0.754148 -3.29649e-08 -0.158752 0.902151 0.0232328 1.99163C0.971937 7.67117 5.9098 12 11.8587 12C17.8076 12 22.7455 7.67117 23.6942 1.99162C23.8762 0.902148 22.9633 -1.00376e-06 21.8587 -9.55475e-07L20.8587 -9.11764e-07C19.7541 -8.63481e-07 18.8875 0.913673 18.5766 1.97359C17.7246 4.87864 15.0394 7 11.8587 7C8.67805 7 5.99286 4.87864 5.14079 1.97359C4.82992 0.913673 3.96329 -1.73241e-07 2.85872 -1.24959e-07L1.85872 -8.12472e-08Z" fill="black"/>
</svg>
