<svg width="16" height="14" viewBox="0 0 16 14" fill="none" xmlns="http://www.w3.org/2000/svg">
<path fill-rule="evenodd" clip-rule="evenodd" d="M5.26829 2C5.26829 0.89543 6.16372 0 7.26829 0H8.26829C9.37286 0 10.2683 0.89543 10.2683 2V5.28867C10.2683 6.0032 10.6495 6.66346 11.2683 7.02072L14.6965 9C15.6531 9.55228 15.9808 10.7755 15.4285 11.732L14.9285 12.5981C14.3763 13.5547 13.1531 13.8824 12.1965 13.3301L8.84842 11.3971C8.22961 11.0398 7.46722 11.0398 6.84842 11.3971L3.50033 13.3301C2.54375 13.8824 1.32057 13.5547 0.768283 12.5981L0.268283 11.7321C-0.284002 10.7755 0.0437492 9.55228 1.00033 9L4.26829 7.11325C4.88709 6.75598 5.26829 6.09572 5.26829 5.38119V2Z" fill="black"/>
</svg>
