<svg width="22" height="22" viewBox="0 0 22 22" fill="none" xmlns="http://www.w3.org/2000/svg">
<path d="M8.48529 16.2634C7.70424 17.0445 6.43791 17.0445 5.65686 16.2634L4.94976 15.5563C4.16871 14.7753 4.16871 13.509 4.94976 12.7279L12.7279 4.94974C13.509 4.16869 14.7753 4.16869 15.5564 4.94974L16.2635 5.65684C17.0445 6.43789 17.0445 7.70422 16.2635 8.48527L8.48529 16.2634Z" fill="black"/>
<path d="M4.94975 8.48527C4.1687 7.70423 4.1687 6.4379 4.94975 5.65685L5.65686 4.94974C6.43791 4.16869 7.70424 4.16869 8.48529 4.94974L16.2635 12.7279C17.0445 13.509 17.0445 14.7753 16.2635 15.5563L15.5564 16.2634C14.7753 17.0445 13.509 17.0445 12.7279 16.2634L4.94975 8.48527Z" fill="black"/>
</svg>
