<svg width="22" height="25" viewBox="0 0 22 25" fill="none" xmlns="http://www.w3.org/2000/svg">
<path d="M9.12134 1.41421C9.90239 0.633165 11.1687 0.633165 11.9498 1.41421L19.7279 9.19239C20.509 9.97344 20.509 11.2398 19.7279 12.0208L19.0208 12.7279C18.2398 13.509 16.9735 13.509 16.1924 12.7279L8.41423 4.94975C7.63318 4.1687 7.63318 2.90237 8.41423 2.12132L9.12134 1.41421Z" fill="black"/>
<path d="M12.7279 2.12132C13.509 2.90237 13.509 4.1687 12.7279 4.94975L4.94976 12.7279C4.16871 13.509 2.90238 13.509 2.12134 12.7279L1.41423 12.0208C0.63318 11.2398 0.63318 9.97344 1.41423 9.19239L9.1924 1.41422C9.97345 0.633168 11.2398 0.633169 12.0208 1.41422L12.7279 2.12132Z" fill="black"/>
<path d="M11.1422 3C12.2467 3 13.1422 3.89543 13.1422 5L13.1422 23C13.1421 24.1046 12.2467 25 11.1421 25L10.1421 25C9.03758 25 8.14215 24.1046 8.14215 23L8.14215 5C8.14215 3.89543 9.03758 3 10.1422 3L11.1422 3Z" fill="black"/>
</svg>
