<svg width="33" height="33" viewBox="0 0 33 33" fill="none" xmlns="http://www.w3.org/2000/svg">
<path d="M7.44977 23.1274C7.44977 24.232 8.3452 25.1274 9.44977 25.1274H20.4498C21.5543 25.1274 22.4498 24.232 22.4498 23.1274V22.1274C22.4498 21.0228 21.5543 20.1274 20.4498 20.1274H9.44977C8.3452 20.1274 7.44977 21.0228 7.44977 22.1274V23.1274Z" fill="black"/>
<path d="M10.5 25.1777C11.6046 25.1777 12.5 24.2822 12.5 23.1777V12.1777C12.5 11.0731 11.6046 10.1777 10.5 10.1777H9.50003C8.39546 10.1777 7.50003 11.0731 7.50003 12.1777V23.1777C7.50003 24.2822 8.39546 25.1777 9.50003 25.1777H10.5Z" fill="black"/>
<path d="M10 23.435C10.7811 24.2161 12.0474 24.2161 12.8285 23.435L25.5564 10.7071C26.3374 9.92606 26.3374 8.65973 25.5564 7.87868L24.8493 7.17157C24.0682 6.39053 22.8019 6.39053 22.0208 7.17157L9.29292 19.8995C8.51188 20.6805 8.51188 21.9469 9.29293 22.7279L10 23.435Z" fill="black"/>
</svg>
