<svg width="25" height="22" viewBox="0 0 25 22" fill="none" xmlns="http://www.w3.org/2000/svg">
<path d="M1.41421 9.12132C0.633165 9.90237 0.633165 11.1687 1.41421 11.9498L9.19239 19.7279C9.97344 20.509 11.2398 20.509 12.0208 19.7279L12.7279 19.0208C13.509 18.2398 13.509 16.9734 12.7279 16.1924L4.94975 8.41422C4.1687 7.63317 2.90237 7.63317 2.12132 8.41422L1.41421 9.12132Z" fill="black"/>
<path d="M2.12131 12.7279C2.90236 13.509 4.16869 13.509 4.94974 12.7279L12.7279 4.94975C13.509 4.1687 13.509 2.90237 12.7279 2.12132L12.0208 1.41421C11.2398 0.633165 9.97342 0.633165 9.19238 1.41421L1.4142 9.19239C0.633153 9.97344 0.633153 11.2398 1.4142 12.0208L2.12131 12.7279Z" fill="black"/>
<path d="M3 11.1421C3 12.2467 3.89543 13.1421 5 13.1421L23 13.1421C24.1046 13.1421 25 12.2467 25 11.1421L25 10.1421C25 9.03756 24.1046 8.14213 23 8.14213L5 8.14214C3.89543 8.14214 3 9.03757 3 10.1421L3 11.1421Z" fill="black"/>
</svg>
