<svg width="33" height="33" viewBox="0 0 33 33" fill="none" xmlns="http://www.w3.org/2000/svg">
<path d="M23.1274 7.44975C24.232 7.44975 25.1274 8.34518 25.1274 9.44975V20.4498C25.1274 21.5543 24.232 22.4498 23.1274 22.4498H22.1274C21.0229 22.4498 20.1274 21.5543 20.1274 20.4498V9.44975C20.1274 8.34518 21.0229 7.44975 22.1274 7.44975H23.1274Z" fill="black"/>
<path d="M25.1777 10.5C25.1777 11.6046 24.2823 12.5 23.1777 12.5H12.1777C11.0731 12.5 10.1777 11.6046 10.1777 10.5V9.5C10.1777 8.39543 11.0731 7.5 12.1777 7.5H23.1777C24.2823 7.5 25.1777 8.39543 25.1777 9.5V10.5Z" fill="black"/>
<path d="M23.4351 10C24.2161 10.7811 24.2161 12.0474 23.4351 12.8284L10.7071 25.5564C9.92609 26.3374 8.65976 26.3374 7.87871 25.5564L7.1716 24.8492C6.39056 24.0682 6.39056 22.8019 7.1716 22.0208L19.8995 9.29289C20.6806 8.51185 21.9469 8.51185 22.728 9.29289L23.4351 10Z" fill="black"/>
</svg>
