<svg width="25" height="22" viewBox="0 0 25 22" fill="none" xmlns="http://www.w3.org/2000/svg">
<path d="M23.5858 9.12132C24.3668 9.90237 24.3668 11.1687 23.5858 11.9498L15.8076 19.7279C15.0266 20.509 13.7602 20.509 12.9792 19.7279L12.2721 19.0208C11.491 18.2398 11.491 16.9734 12.2721 16.1924L20.0503 8.41422C20.8313 7.63317 22.0976 7.63317 22.8787 8.41422L23.5858 9.12132Z" fill="black"/>
<path d="M22.8787 12.7279C22.0976 13.509 20.8313 13.509 20.0503 12.7279L12.2721 4.94975C11.491 4.1687 11.491 2.90237 12.2721 2.12132L12.9792 1.41421C13.7602 0.633165 15.0266 0.633165 15.8076 1.41421L23.5858 9.19239C24.3668 9.97344 24.3668 11.2398 23.5858 12.0208L22.8787 12.7279Z" fill="black"/>
<path d="M22 11.1421C22 12.2467 21.1046 13.1421 20 13.1421L2 13.1421C0.89543 13.1421 7.8281e-08 12.2467 1.74846e-07 11.1421L2.62268e-07 10.1421C3.58833e-07 9.03756 0.895432 8.14213 2 8.14213L20 8.14214C21.1046 8.14214 22 9.03757 22 10.1421L22 11.1421Z" fill="black"/>
</svg>
