<svg width="22" height="25" viewBox="0 0 22 25" fill="none" xmlns="http://www.w3.org/2000/svg">
<path d="M9.12134 23.5858C9.90239 24.3668 11.1687 24.3668 11.9498 23.5858L19.7279 15.8076C20.509 15.0266 20.509 13.7602 19.7279 12.9792L19.0208 12.2721C18.2398 11.491 16.9735 11.491 16.1924 12.2721L8.41423 20.0503C7.63318 20.8313 7.63318 22.0976 8.41423 22.8787L9.12134 23.5858Z" fill="black"/>
<path d="M12.7279 22.8787C13.509 22.0976 13.509 20.8313 12.7279 20.0502L4.94976 12.2721C4.16871 11.491 2.90238 11.491 2.12134 12.2721L1.41423 12.9792C0.63318 13.7602 0.63318 15.0266 1.41423 15.8076L9.1924 23.5858C9.97345 24.3668 11.2398 24.3668 12.0208 23.5858L12.7279 22.8787Z" fill="black"/>
<path d="M11.1422 22C12.2467 22 13.1422 21.1046 13.1422 20L13.1422 2C13.1421 0.89543 12.2467 3.91405e-08 11.1421 8.74228e-08L10.1421 1.31134e-07C9.03758 1.79416e-07 8.14215 0.895432 8.14215 2L8.14215 20C8.14215 21.1046 9.03758 22 10.1422 22L11.1422 22Z" fill="black"/>
</svg>
