<svg width="22" height="17" viewBox="0 0 22 17" fill="none" xmlns="http://www.w3.org/2000/svg">
<path d="M1.41421 4.94974C0.633165 4.16869 0.633165 2.90236 1.41421 2.12131L2.12132 1.4142C2.90237 0.633154 4.1687 0.633154 4.94975 1.4142L9.89949 6.36395C10.6805 7.145 10.6805 8.41133 9.89949 9.19238L9.19239 9.89948C8.41134 10.6805 7.14501 10.6805 6.36396 9.89948L1.41421 4.94974Z" fill="black"/>
<path d="M4.94974 14.8995C4.16869 15.6806 2.90236 15.6806 2.12131 14.8995L1.4142 14.1924C0.633154 13.4114 0.633154 12.145 1.4142 11.364L6.36395 6.41423C7.145 5.63318 8.41133 5.63318 9.19238 6.41423L9.89948 7.12133C10.6805 7.90238 10.6805 9.16871 9.89948 9.94976L4.94974 14.8995Z" fill="black"/>
<path d="M13 17C11.8954 17 11 16.1046 11 15L11 14C11 12.8954 11.8954 12 13 12L20 12C21.1046 12 22 12.8954 22 14L22 15C22 16.1046 21.1046 17 20 17L13 17Z" fill="black"/>
</svg>
