<svg width="20" height="22" viewBox="0 0 20 22" fill="none" xmlns="http://www.w3.org/2000/svg">
<path fill-rule="evenodd" clip-rule="evenodd" d="M19.0526 6.3453C19.0526 5.63077 18.6714 4.97051 18.0526 4.61325L10.5263 0.267949C9.90748 -0.0893164 9.14508 -0.0893164 8.52628 0.267949L1 4.61325C0.381198 4.97051 0 5.63077 0 6.3453V15.0359C0 15.7504 0.381198 16.4107 1 16.768L8.52628 21.1132C9.14508 21.4705 9.90748 21.4705 10.5263 21.1132L18.0526 16.768C18.6714 16.4107 19.0526 15.7504 19.0526 15.0359V6.3453ZM16.4545 7.8453C16.4545 7.13077 16.0733 6.47051 15.4545 6.11325L10.5263 3.26795C9.90748 2.91068 9.14508 2.91068 8.52628 3.26795L3.59808 6.11325C2.97927 6.47051 2.59808 7.13077 2.59808 7.8453V13.5359C2.59808 14.2504 2.97927 14.9107 3.59808 15.2679L8.52628 18.1132C9.14508 18.4705 9.90748 18.4705 10.5263 18.1132L15.4545 15.268C16.0733 14.9107 16.4545 14.2504 16.4545 13.5359V7.8453Z" fill="black"/>
<path fill-rule="evenodd" clip-rule="evenodd" d="M17 4.31711L16.4545 4.00216V4.84924C16.4545 5.56377 16.0733 6.22403 15.4545 6.58129L10.5263 9.42659C9.90748 9.78386 9.14508 9.78386 8.52628 9.42659L3.59808 6.58129C2.97927 6.22403 2.59808 5.56377 2.59808 4.84924V4L2 4.3453V8.65864L8.52628 12.4266C9.14508 12.7839 9.90748 12.7839 10.5263 12.4266L17 8.68899V4.31711Z" fill="black"/>
<line x1="9.5" y1="10" x2="9.5" y2="20" stroke="black" stroke-width="3"/>
</svg>
