<svg width="15" height="24" viewBox="0 0 15 24" fill="none" xmlns="http://www.w3.org/2000/svg">
<path d="M12 22C12 23.1046 11.1046 24 10 24L9 24C7.89543 24 7 23.1046 7 22L7 2C7 0.895429 7.89543 -3.58833e-07 9 -2.62268e-07L10 -1.74846e-07C11.1046 -7.8281e-08 12 0.895432 12 2L12 22Z" fill="black"/>
<path d="M10 19C11.1046 19 12 19.8954 12 21L12 22C12 23.1046 11.1046 24 10 24L2 24C0.89543 24 -1.79416e-07 23.1046 -1.31134e-07 22L-8.74228e-08 21C-3.91405e-08 19.8954 0.895431 19 2 19L10 19Z" fill="black"/>
<path d="M13 10C14.1046 10 15 10.8954 15 12L15 13C15 14.1046 14.1046 15 13 15L9 15C7.89543 15 7 14.1046 7 13L7 12C7 10.8954 7.89543 10 9 10L13 10Z" fill="black"/>
<path d="M10 -8.74228e-08C11.1046 -3.91405e-08 12 0.895431 12 2L12 3C12 4.10457 11.1046 5 10 5L2 5C0.89543 5 -1.79416e-07 4.10457 -1.31134e-07 3L-8.74228e-08 2C-3.91405e-08 0.89543 0.895431 -4.85396e-07 2 -4.37114e-07L10 -8.74228e-08Z" fill="black"/>
</svg>
