<svg width="37" height="29" viewBox="0 0 37 29" fill="none" xmlns="http://www.w3.org/2000/svg">
<path d="M1.82047 14.2366C1.57671 14.2366 1.37753 14.1586 1.22295 14.0025C1.07432 13.8404 1 13.6393 1 13.3992V2.11656C1 1.87043 1.07432 1.66933 1.22295 1.51326C1.37753 1.35117 1.57671 1.27013 1.82047 1.27013H5.9674C7.85211 1.27013 9.36522 1.87344 10.5067 3.08004C11.6483 4.28063 12.219 5.83841 12.219 7.75337C12.219 9.02 11.9634 10.1456 11.4521 11.13C10.9467 12.1085 10.2184 12.8709 9.26712 13.4172C8.31585 13.9635 7.21594 14.2366 5.9674 14.2366H1.82047ZM2.64986 12.6068H5.94957C7.32891 12.6068 8.42881 12.1596 9.24928 11.2651C10.0757 10.3707 10.4889 9.20009 10.4889 7.75337C10.4889 6.31865 10.0757 5.15107 9.24928 4.25062C8.42287 3.35017 7.32296 2.89995 5.94957 2.89995H2.64986V12.6068Z" fill="black"/>
<path d="M13.0306 14.4527C12.8106 14.4527 12.6203 14.3777 12.4598 14.2276C12.2993 14.0715 12.219 13.8794 12.219 13.6513C12.219 13.4772 12.2577 13.3001 12.335 13.12L16.7673 2.30565C16.9516 1.84342 17.1626 1.51025 17.4005 1.30615C17.6442 1.10205 17.9593 1 18.3458 1C18.7382 1 19.0533 1.10205 19.2911 1.30615C19.5289 1.51025 19.743 1.84342 19.9332 2.30565L24.3566 13.12C24.4339 13.3001 24.4725 13.4772 24.4725 13.6513C24.4725 13.8794 24.3923 14.0715 24.2318 14.2276C24.0712 14.3777 23.881 14.4527 23.661 14.4527C23.2686 14.4527 23.004 14.2756 22.8673 13.9214L21.6544 10.8959H15.0372L13.8243 13.9214C13.6875 14.2756 13.423 14.4527 13.0306 14.4527ZM15.6793 9.29313H21.0123L18.3458 2.62081L15.6793 9.29313Z" fill="black"/>
<path d="M27.4298 14.1916C27.2752 14.3477 27.0761 14.4257 26.8323 14.4257C26.5885 14.4257 26.3894 14.3477 26.2348 14.1916C26.0861 14.0355 26.0118 13.8344 26.0118 13.5883V2.11656C26.0118 1.87043 26.0861 1.66933 26.2348 1.51326C26.3894 1.35117 26.5885 1.27013 26.8323 1.27013H31.5857C32.7391 1.27013 33.7111 1.63632 34.5019 2.36868C35.2926 3.10105 35.688 4.04051 35.688 5.18709C35.688 6.13556 35.4205 6.94596 34.8854 7.6183C34.3503 8.28463 33.6487 8.73185 32.7807 8.95997L35.5542 13.039C35.7029 13.2611 35.7772 13.4712 35.7772 13.6693C35.7772 13.8734 35.6939 14.0505 35.5275 14.2006C35.367 14.3446 35.1767 14.4167 34.9567 14.4167C34.6594 14.4167 34.4216 14.2816 34.2433 14.0115L30.9436 9.11304H27.6617V13.5883C27.6617 13.8344 27.5844 14.0355 27.4298 14.1916ZM27.6617 7.51024H31.4965C32.2456 7.51024 32.8461 7.30014 33.2979 6.87993C33.7498 6.45972 33.9757 5.89544 33.9757 5.18709C33.9757 4.48474 33.7498 3.92346 33.2979 3.50325C32.8461 3.08304 32.2456 2.87293 31.4965 2.87293H27.6617V7.51024Z" fill="black"/>
<path d="M1.82047 28C1.58265 28 1.38645 27.922 1.23187 27.7659C1.07729 27.6098 1 27.4087 1 27.1626V15.4928C1 15.2466 1.07729 15.0455 1.23187 14.8895C1.38645 14.7334 1.58265 14.6554 1.82047 14.6554C2.06423 14.6554 2.2634 14.7334 2.41798 14.8895C2.57257 15.0455 2.64986 15.2466 2.64986 15.4928V21.5618L9.61492 14.9975C9.8468 14.7814 10.0846 14.6734 10.3284 14.6734C10.5305 14.6734 10.7029 14.7454 10.8456 14.8895C10.9943 15.0275 11.0686 15.1926 11.0686 15.3847C11.0686 15.6729 10.9318 15.943 10.6583 16.1951L6.19036 20.3732L11.0953 26.5323C11.3272 26.8324 11.4431 27.0785 11.4431 27.2706C11.4431 27.4687 11.3599 27.6398 11.1934 27.7839C11.027 27.928 10.8308 28 10.6048 28C10.3016 28 10.046 27.8679 9.83788 27.6038L4.98641 21.4988L2.64986 23.6869V27.1626C2.64986 27.4087 2.57257 27.6098 2.41798 27.7659C2.2634 27.922 2.06423 28 1.82047 28Z" fill="black"/>
<path d="M32.8251 27.068C31.8323 27.6383 30.7056 27.9234 29.4452 27.9234C29.4112 27.9234 16.8154 27.9586 16.7816 27.9582C15.562 27.9432 14.4662 27.6583 13.4943 27.1034C12.5014 26.5331 11.7256 25.7347 11.1667 24.7082C10.6078 23.6817 10.3284 22.5141 10.3284 21.2054C10.3284 19.8968 10.6078 18.7292 11.1667 17.7027C11.7256 16.6762 12.5014 15.8778 13.4943 15.3075C14.4662 14.7526 15.562 14.4677 16.7816 14.4527C16.8154 14.4523 29.4112 14.4167 27.626 14.4527C28.8864 14.4527 31.8323 14.7018 32.8251 15.2721C33.824 15.8424 34.6028 16.6408 35.1617 17.6673C35.7206 18.6938 36 19.8614 36 21.17C36 22.4787 35.7206 23.6463 35.1617 24.6728C34.6028 25.6993 33.824 26.4977 32.8251 27.068ZM13.3873 17.5316C12.4836 18.4741 12.0317 19.6987 12.0317 21.2054C12.0317 22.7122 12.4836 23.9368 13.3873 24.8793C14.2752 25.7992 15.4066 26.2702 16.7816 26.2922C16.8154 26.2927 29.4112 26.2576 29.4452 26.2576C30.8661 26.2576 32.0285 25.7864 32.9322 24.8439C33.8418 23.9014 34.2966 22.6768 34.2966 21.17C34.2966 19.6633 33.8418 18.4387 32.9322 17.4962C32.0285 16.5538 30.8661 16.0825 29.4452 16.0825C29.4112 16.0825 16.8154 16.1182 16.7816 16.1187C15.4066 16.1407 14.2752 16.6117 13.3873 17.5316Z" fill="black"/>
<path d="M16.7816 14.4527C15.562 14.4677 14.4662 14.7526 13.4943 15.3075C12.5014 15.8778 11.7256 16.6762 11.1667 17.7027C10.6078 18.7292 10.3284 19.8968 10.3284 21.2054C10.3284 22.5141 10.6078 23.6817 11.1667 24.7082C11.7256 25.7347 12.5014 26.5331 13.4943 27.1034C14.4662 27.6583 15.562 27.9432 16.7816 27.9582M16.7816 14.4527C16.8154 14.4523 29.4112 14.4167 27.626 14.4527C28.8864 14.4527 31.8323 14.7018 32.8251 15.2721C33.824 15.8424 34.6028 16.6408 35.1617 17.6673C35.7206 18.6938 36 19.8614 36 21.1701C36 22.4787 35.7206 23.6463 35.1617 24.6728C34.6028 25.6993 33.824 26.4977 32.8251 27.068C31.8323 27.6383 30.7056 27.9234 29.4452 27.9234C29.4112 27.9234 16.8154 27.9586 16.7816 27.9582M16.7816 14.4527V16.1187M16.7816 16.1187C16.8154 16.1182 29.4112 16.0825 29.4452 16.0825C30.8661 16.0825 32.0285 16.5538 32.9322 17.4962C33.8418 18.4387 34.2966 19.6633 34.2966 21.1701C34.2966 22.6768 33.8418 23.9014 32.9322 24.8439C32.0285 25.7864 30.8661 26.2576 29.4452 26.2576C29.4112 26.2576 16.8154 26.2927 16.7816 26.2922M16.7816 16.1187C15.4066 16.1407 14.2752 16.6117 13.3873 17.5316C12.4836 18.4741 12.0317 19.6987 12.0317 21.2054C12.0317 22.7122 12.4836 23.9368 13.3873 24.8793C14.2752 25.7992 15.4066 26.2702 16.7816 26.2922M16.7816 26.2922V27.9582M1.82047 14.2366C1.57671 14.2366 1.37753 14.1586 1.22295 14.0025C1.07432 13.8404 1 13.6393 1 13.3992V2.11656C1 1.87043 1.07432 1.66933 1.22295 1.51326C1.37753 1.35117 1.57671 1.27013 1.82047 1.27013H5.9674C7.85211 1.27013 9.36522 1.87344 10.5067 3.08004C11.6483 4.28063 12.219 5.83841 12.219 7.75337C12.219 9.02 11.9634 10.1456 11.4521 11.13C10.9467 12.1085 10.2184 12.8709 9.26712 13.4172C8.31585 13.9635 7.21594 14.2366 5.9674 14.2366H1.82047ZM2.64986 12.6068H5.94957C7.32891 12.6068 8.42881 12.1596 9.24928 11.2651C10.0757 10.3707 10.4889 9.20009 10.4889 7.75337C10.4889 6.31865 10.0757 5.15107 9.24928 4.25062C8.42287 3.35017 7.32296 2.89995 5.94957 2.89995H2.64986V12.6068ZM13.0306 14.4527C12.8106 14.4527 12.6203 14.3777 12.4598 14.2276C12.2993 14.0715 12.219 13.8794 12.219 13.6513C12.219 13.4772 12.2577 13.3001 12.335 13.12L16.7673 2.30565C16.9516 1.84342 17.1626 1.51025 17.4005 1.30615C17.6442 1.10205 17.9593 1 18.3458 1C18.7382 1 19.0533 1.10205 19.2911 1.30615C19.5289 1.51025 19.743 1.84342 19.9332 2.30565L24.3566 13.12C24.4339 13.3001 24.4725 13.4772 24.4725 13.6513C24.4725 13.8794 24.3923 14.0715 24.2318 14.2276C24.0712 14.3777 23.881 14.4527 23.661 14.4527C23.2686 14.4527 23.004 14.2756 22.8673 13.9214L21.6544 10.8959H15.0372L13.8243 13.9214C13.6875 14.2756 13.423 14.4527 13.0306 14.4527ZM15.6793 9.29313H21.0123L18.3458 2.62081L15.6793 9.29313ZM27.4298 14.1916C27.2752 14.3477 27.0761 14.4257 26.8323 14.4257C26.5885 14.4257 26.3894 14.3477 26.2348 14.1916C26.0861 14.0355 26.0118 13.8344 26.0118 13.5883V2.11656C26.0118 1.87043 26.0861 1.66933 26.2348 1.51326C26.3894 1.35117 26.5885 1.27013 26.8323 1.27013H31.5857C32.7391 1.27013 33.7111 1.63632 34.5019 2.36868C35.2926 3.10105 35.688 4.04052 35.688 5.18709C35.688 6.13556 35.4205 6.94596 34.8854 7.6183C34.3503 8.28463 33.6487 8.73185 32.7807 8.95997L35.5542 13.039C35.7029 13.2611 35.7772 13.4712 35.7772 13.6693C35.7772 13.8734 35.6939 14.0505 35.5275 14.2006C35.3669 14.3446 35.1767 14.4167 34.9567 14.4167C34.6594 14.4167 34.4216 14.2816 34.2433 14.0115L30.9436 9.11304H27.6617V13.5883C27.6617 13.8344 27.5844 14.0355 27.4298 14.1916ZM27.6617 7.51024H31.4965C32.2456 7.51024 32.8461 7.30014 33.2979 6.87993C33.7498 6.45972 33.9757 5.89544 33.9757 5.18709C33.9757 4.48474 33.7498 3.92346 33.2979 3.50325C32.8461 3.08304 32.2456 2.87293 31.4965 2.87293H27.6617V7.51024ZM1.82047 28C1.58265 28 1.38645 27.922 1.23187 27.7659C1.07729 27.6098 1 27.4087 1 27.1626V15.4928C1 15.2466 1.07729 15.0455 1.23187 14.8895C1.38645 14.7334 1.58265 14.6554 1.82047 14.6554C2.06423 14.6554 2.2634 14.7334 2.41798 14.8895C2.57257 15.0455 2.64986 15.2466 2.64986 15.4928V21.5618L9.61492 14.9975C9.8468 14.7814 10.0846 14.6734 10.3284 14.6734C10.5305 14.6734 10.7029 14.7454 10.8456 14.8895C10.9943 15.0275 11.0686 15.1926 11.0686 15.3847C11.0686 15.6729 10.9318 15.943 10.6583 16.1951L6.19036 20.3732L11.0953 26.5323C11.3272 26.8324 11.4431 27.0785 11.4431 27.2706C11.4431 27.4687 11.3599 27.6398 11.1934 27.7839C11.027 27.928 10.8308 28 10.6048 28C10.3016 28 10.046 27.8679 9.83788 27.6038L4.98641 21.4988L2.64986 23.6869V27.1626C2.64986 27.4087 2.57257 27.6098 2.41798 27.7659C2.2634 27.922 2.06423 28 1.82047 28Z" stroke="black"/>
</svg>
