<svg width="12" height="24" viewBox="0 0 12 24" fill="none" xmlns="http://www.w3.org/2000/svg">
<path fill-rule="evenodd" clip-rule="evenodd" d="M1.62494e-07 21.8587C6.59298e-08 22.9633 0.902151 23.8762 1.99163 23.6942C7.67117 22.7455 12 17.8076 12 11.8587C12 5.9098 7.67117 0.971937 1.99163 0.0232325C0.902151 -0.158752 2.00751e-06 0.754149 1.91095e-06 1.85872L1.82353e-06 2.85872C1.72696e-06 3.96329 0.913675 4.82992 1.97359 5.14079C4.87864 5.99286 7 8.67805 7 11.8587C7 15.0394 4.87864 17.7246 1.97359 18.5766C0.913674 18.8875 3.46482e-07 19.7541 2.49917e-07 20.8587L1.62494e-07 21.8587Z" fill="black"/>
</svg>
