<svg width="12" height="24" viewBox="0 0 12 24" fill="none" xmlns="http://www.w3.org/2000/svg">
<path d="M0 2C0 0.89543 0.895431 0 2 0H3C4.10457 0 5 0.895431 5 2V22C5 23.1046 4.10457 24 3 24H2C0.89543 24 0 23.1046 0 22V2Z" fill="black"/>
<path d="M2 5C0.895431 5 -3.91405e-08 4.10457 -8.74228e-08 3L-1.31134e-07 2C-1.79416e-07 0.895431 0.89543 4.37697e-07 2 3.89414e-07L10 3.97233e-08C11.1046 -8.55899e-09 12 0.895431 12 2L12 3C12 4.10457 11.1046 5 10 5L2 5Z" fill="black"/>
<path d="M2 24C0.895431 24 -3.91405e-08 23.1046 -8.74228e-08 22L-1.31134e-07 21C-1.79416e-07 19.8954 0.89543 19 2 19L10 19C11.1046 19 12 19.8954 12 21L12 22C12 23.1046 11.1046 24 10 24L2 24Z" fill="black"/>
</svg>
