<?xml version="1.0" standalone="no"?>
<!DOCTYPE svg PUBLIC "-//W3C//DTD SVG 20010904//EN"
 "http://www.w3.org/TR/2001/REC-SVG-20010904/DTD/svg10.dtd">
<svg version="1.0" xmlns="http://www.w3.org/2000/svg"
 width="250.000000pt" height="149.000000pt" viewBox="0 0 250.000000 149.000000"
 preserveAspectRatio="xMidYMid meet">
<metadata>
Created by potrace 1.16, written by Peter Selinger 2001-2019
</metadata>
<g transform="translate(0.000000,149.000000) scale(0.100000,-0.100000)" >
<path d="M601 1477 c-6 -8 -26 -120 -44 -251 -18 -130 -38 -241 -44 -247 -7
-7 -79 18 -238 81 -193 77 -232 90 -252 81 -17 -8 -23 -19 -23 -45 0 -31 9
-41 137 -142 183 -143 243 -194 243 -205 0 -5 -85 -77 -190 -160 -187 -148
-190 -151 -190 -189 0 -38 11 -50 48 -50 9 0 115 39 235 87 135 54 221 83 227
77 5 -5 23 -112 40 -239 16 -126 35 -240 40 -252 13 -31 84 -33 100 -3 6 11
24 122 40 247 34 253 34 253 53 253 8 0 107 -38 222 -85 133 -54 221 -85 245
-85 24 0 113 31 246 85 115 47 214 85 221 85 19 0 19 -1 53 -253 16 -125 34
-236 40 -247 14 -27 85 -28 99 -2 5 10 23 123 40 251 18 129 34 238 37 242 3
5 10 9 16 9 6 0 105 -38 221 -85 116 -47 218 -85 228 -85 38 0 49 12 49 50 0
38 -3 41 -190 189 -104 83 -190 155 -190 160 0 11 60 62 243 205 128 101 137
111 137 142 0 26 -6 37 -23 45 -20 9 -59 -4 -252 -81 -158 -63 -231 -88 -238
-81 -6 6 -26 117 -44 247 -18 130 -38 243 -44 250 -15 18 -63 18 -79 -1 -7 -8
-27 -121 -45 -251 -18 -130 -37 -240 -43 -246 -6 -6 -88 23 -228 79 -130 51
-233 87 -254 87 -21 0 -124 -36 -254 -87 -138 -56 -222 -85 -228 -79 -6 6 -25
116 -43 246 -18 130 -38 243 -45 251 -16 19 -64 20 -79 2z m838 -590 c89 -70
161 -133 161 -141 0 -19 -325 -266 -350 -266 -26 0 -350 247 -350 267 0 7 73
72 163 143 127 101 168 129 189 127 16 -1 86 -49 187 -130z"/>
</g>
</svg>
