<?xml version="1.0" standalone="no"?>
<!DOCTYPE svg PUBLIC "-//W3C//DTD SVG 20010904//EN"
 "http://www.w3.org/TR/2001/REC-SVG-20010904/DTD/svg10.dtd">
<svg version="1.0" xmlns="http://www.w3.org/2000/svg"
 width="1200.000000pt" height="630.000000pt" viewBox="0 0 1200.000000 630.000000"
 preserveAspectRatio="xMidYMid meet">
<metadata>
Created by potrace 1.16, written by Peter Selinger 2001-2019
</metadata>
<g transform="translate(0.000000,630.000000) scale(0.100000,-0.100000)"
fill="#000000" stroke="none">
<path d="M3480 3150 l0 -2520 2520 0 2520 0 0 2520 0 2520 -2520 0 -2520 0 0
-2520z m2840 1541 c125 -28 260 -77 338 -123 96 -56 193 -161 241 -258 90
-183 93 -428 8 -608 -40 -86 -148 -197 -230 -237 -31 -15 -59 -31 -62 -34 -2
-4 16 -12 39 -19 65 -17 164 -79 221 -137 106 -107 165 -294 150 -470 -32
-374 -209 -579 -580 -674 -144 -37 -233 -41 -857 -41 l-608 0 0 1316 0 1315
618 -3 c603 -3 619 -4 722 -27z m698 -2943 c8 -8 12 -47 12 -108 0 -61 -4
-100 -12 -108 -17 -17 -2009 -17 -2026 0 -16 16 -16 200 0 216 17 17 2009 17
2026 0z"/>
<path d="M5622 3928 l3 -303 200 1 c118 0 228 6 267 13 91 18 164 63 203 125
29 47 30 54 30 160 0 104 -2 114 -29 163 -35 64 -85 100 -173 124 -56 16 -103
19 -285 19 l-218 0 2 -302z"/>
<path d="M5620 2889 l0 -310 273 3 273 3 69 35 c92 46 128 93 146 191 26 148
-27 295 -125 346 -71 37 -126 43 -383 43 l-253 0 0 -311z"/>
</g>
</svg>
