<svg xmlns="http://www.w3.org/2000/svg" shape-rendering="geometricPrecision" text-rendering="geometricPrecision" image-rendering="optimizeQuality" fill-rule="evenodd" clip-rule="evenodd" viewBox="0 0 512 512"><path fill-rule="nonzero" d="M256 0c70.69 0 134.692 28.653 181.017 74.983C483.347 121.311 512 185.31 512 256s-28.653 134.692-74.983 181.017C390.692 483.347 326.69 512 256 512s-134.692-28.653-181.017-74.983C28.653 390.692 0 326.69 0 256S28.653 121.308 74.983 74.983C121.311 28.653 185.31 0 256 0zm144.535 278.313c-1.212 21.662-19.292 38.512-40.982 38.212h-98.508c-4.512-.047-8.154-3.707-8.178-8.214V202.246a9.036 9.036 0 015.441-8.636s9.061-6.284 28.146-6.284a64.567 64.567 0 0133.121 9.101 65.537 65.537 0 0130.839 42.712 37.944 37.944 0 0110.448-1.423 39.438 39.438 0 0128.457 11.878 39.426 39.426 0 0111.22 28.721l-.004-.002zm-159.962-69.361c2.97 35.975 5.13 68.785 0 104.642a3.198 3.198 0 01-6.359 0c-4.784-35.552-2.7-68.979 0-104.642a3.188 3.188 0 011.482-3.06 3.22 3.22 0 013.4 0 3.197 3.197 0 011.477 3.06zM220.641 313.63a3.35 3.35 0 01-3.313 2.848 3.348 3.348 0 01-3.318-2.848 400.034 400.034 0 010-92.335 3.36 3.36 0 013.336-3 3.361 3.361 0 013.335 3 359.233 359.233 0 01-.042 92.335h.002zm-19.974-95.459c3.235 32.964 4.707 62.497-.036 95.383 0 1.766-1.436 3.2-3.199 3.2a3.204 3.204 0 01-3.2-3.2c-4.589-32.464-3.049-62.844 0-95.383a3.226 3.226 0 013.218-2.882 3.228 3.228 0 013.217 2.882zm-20.003 95.501a3.286 3.286 0 01-3.264 2.918 3.27 3.27 0 01-3.254-2.918 337.815 337.815 0 010-86.212 3.317 3.317 0 016.631 0 315.05 315.05 0 01-.118 86.212h.005zm-19.979-64.656c5.054 22.355 2.778 42.1-.189 64.885a3.127 3.127 0 01-3.088 2.635 3.126 3.126 0 01-3.082-2.635c-2.699-22.473-4.936-42.683-.194-64.892a3.283 3.283 0 013.278-3.278 3.28 3.28 0 013.278 3.282l-.003.003zm-19.932-3.396c4.63 22.903 3.124 42.294-.117 65.275-.383 3.395-6.202 3.431-6.513 0-2.931-22.634-4.318-42.606-.118-65.275a3.402 3.402 0 013.378-3.03 3.384 3.384 0 013.37 3.03zm-20.12 11.102c4.854 15.192 3.195 27.534-.194 43.106a3.16 3.16 0 01-3.142 2.813 3.17 3.17 0 01-3.148-2.813c-2.931-15.267-4.118-27.874-.265-43.106a3.384 3.384 0 013.371-3.03 3.384 3.384 0 013.371 3.03h.007zM419.782 92.218C377.869 50.306 319.963 24.381 256 24.381c-63.96 0-121.866 25.925-163.778 67.837C50.309 134.131 24.384 192.037 24.384 256c0 63.96 25.925 121.866 67.838 163.778 41.912 41.913 99.818 67.838 163.778 67.838 63.963 0 121.869-25.925 163.782-67.838 41.912-41.912 67.837-99.818 67.837-163.778 0-63.963-25.925-121.869-67.837-163.782z"/></svg>